<?xml version="1.0" encoding="utf-8"?>
<!-- Generator: Adobe Illustrator 21.0.0, SVG Export Plug-In . SVG Version: 6.00 Build 0)  -->
<svg version="1.1" id="Capa_1" xmlns="http://www.w3.org/2000/svg" xmlns:xlink="http://www.w3.org/1999/xlink" x="0px" y="0px"
	 viewBox="0 0 595.3 841.9" style="enable-background:new 0 0 595.3 841.9;" xml:space="preserve">
<style type="text/css">
	.st0{fill:#FEFEFE;}
	.st1{fill:#F6B09D;}
	.st2{fill:#F6B19D;}
	.st3{fill:#DF9A8F;}
	.st4{fill:#E09488;}
	.st5{fill:#DC968D;}
	.st6{fill:#AE6C6C;}
	.st7{fill:#D28B83;}
	.st8{fill:#C07A76;}
	.st9{fill:#F3A895;}
	.st10{fill:#EA9F92;}
	.st11{fill:#B06D6D;}
	.st12{fill:#EAA093;}
	.st13{fill:#D68D84;}
	.st14{fill:#EAA18F;}
	.st15{fill:#C67D7A;}
	.st16{fill:#BF7B77;}
	.st17{fill:#FFFFFF;}
</style>
<g>
	<path class="st0" d="M0.5,670.8c0-158.5,0-317.1,0-475.6c198.5,0,397,0,595.6,0c0,158.5,0,317.1,0,475.6
		C397.6,670.8,199.1,670.8,0.5,670.8z"/>
	<path class="st1" d="M188.2,420.2c2.6-0.9,5.2-1.8,7.8-2.5c3.2-0.8,6.4-2.1,9.5-3.1c2.2-0.7,4.4-1.6,6.8-2c2.3-0.3,4.5-1.4,6.8-1.9
		c1-0.2,1.9-0.6,3-0.7c0.6-0.1,1.4-0.1,1.9-0.4c2.3-1.5,5-1.7,7.5-2.2c4.6-0.9,9.2-2.1,13.9-2.9c2.4-0.4,4.9-0.5,7.3-0.8
		c7.1-0.9,14.2-0.5,21.3-0.5c1.1,0,2.2-0.1,3.2,0.6c0.3,0.2,0.9,0.2,1.4,0.2c2.1-0.2,4.1,0.5,6.2,0.7c1.7,0.1,3.1,1.2,4.7,1.6
		c2.7,0.7,4.7,2.8,7.2,4c0.4,0.2,0.8,0.5,1,1c0.1,0.3,0.3,0.7,0.5,0.8c4.2,1.8,5.5,5.9,7.2,9.5c2.4,5,2,10.4,1.8,15.7
		c-0.1,2.2-0.7,4.4-1.2,6.6c-0.4,1.9,0.2,2.6,2,2.2c2.3-0.5,4.5-1.1,6.7-1.7c1.3-0.3,2.6-0.6,4-0.5c0.1,1.1-0.8,1.3-1.6,1.5
		c-2.2,0.5-4.2,1.6-6.5,1.7c-0.7,0-1.9,0-1.8,1.1c0.1,0.9,1,1.1,1.9,1c1.2-0.1,2.6-0.3,2.9,1.3c0.3,1.6-0.7,2.7-2.1,3.4
		c-1.6,0.7-3.3,1.2-5.1,0.9c-0.8-0.1-1.6-0.3-2.7,0.3c2.1-0.2,4.1-0.9,5.4,1.1c0.2,0.3,0.6,0.4,0.9,0.1c1.3-1.2,3.2-0.5,4.3-1
		c3.7-1.7,7.7,0.2,11.3-1.5c0.9-0.4,2.2-0.4,3.2,0.5c-2.5,0.9-5.2,1.1-7.8,1.7c-2.8,0.7-5.7,0.8-8.3,2c-0.1,0-0.2,0.1-0.2,0.1
		c-2.4-0.3-4.6,1.2-6.9,1.3c-1.8,0.1-3.2,1.4-5,1.3c-0.6,0-1,0.6-1.3,1c-0.4,0.7-0.9,1.3-1.2,2.1c-1.3,3.1-3.2,5.8-4.8,8.7
		c-1.3,2.3-2.9,4.3-4.4,6.4c-0.7,0.9-1.5,1.8-1.8,3.1c-0.2,0.9-1,1.5-1.5,2.1c-2.1,2.8-4.2,5.5-6.4,8.1c-2.9,3.6-5.7,7.3-8.9,10.7
		c-1.1,1.2-1.7,3-3.5,3.4c-0.2,1.9-1.9,2.6-3,3.8c-1.9,1.9-3.6,3.9-5.2,6c-0.3,0.4-0.8,0.5-1.3,0.6c-0.4,0-0.8,0.2-1,0.6
		c-1,2.2-3,3.4-4.6,4.9c-1.1,1-2.3,2.1-3.1,3.4c-0.2,0.3-0.4,0.9-0.7,0.9c-2.6,0.7-3.7,3.4-5.7,4.8c-2,1.4-3.7,3.4-5.7,5
		c-3.6,3-6.8,6.4-10.9,8.7c-0.4,0.2-0.7,0.7-1,1c-0.3,0.4-0.7,1-1.2,1.2c-2.9,0.7-4.6,3.2-7,4.7c-2.8,1.7-5.6,3.3-7.9,5.7
		c-0.2,0.2-0.4,0.3-0.6,0.4c-3.2,0.5-5.5,3-8.2,4.4c-3.7,2-7.6,3.8-11.3,5.7c-1.3,0.1-2.5,0.2-3.7-0.6c-1.7-1.1-1.8-2.4-0.1-3.5
		c1.7-1.1,3.6-1.6,5.5-2.2c0.4-0.1,0.8-0.1,1.1-0.7c-1-1.2-2.4-0.9-3.7-1.1c-1.2-0.1-2.9,0.6-3.1-1.6c-0.1-0.6-0.8-0.2-1.2-0.1
		c-1,0.4-1.9,0.9-2.9,0.3c-0.3-1.3,0.8-1.3,1.5-1.7c5.6-3.3,11.6-5.7,17-9.3c9-5.8,18-11.6,26.1-18.6c5.1-4.4,10.4-8.7,15.3-13.3
		c3.8-3.6,7.5-7.4,11.2-11.2c4.9-4.9,9.6-10.1,13.8-15.6c4.7-6.1,9.4-12.1,13.7-18.4c0.5-0.7,1.5-1.5,0.8-2.3
		c-0.7-0.8-1.6-0.1-2.4,0.3c-2.1,1.2-4.5,1.6-6.8,2.2c-4.6,1.2-8.8,3.3-13.1,5.1c-6.5,2.8-13,5.6-19.4,8.6
		c-9.3,4.5-18.2,9.5-27.1,14.7c-2.9,1.7-5.7,3.8-8.5,5.7c-3.2,2.1-6.1,4.6-9.3,6.7c-3.6,2.3-6.7,5.1-10,7.8
		c-1.1,0.9-2.1,2.2-3.8,2.2c-0.5-1.7,1.4-2.9,0.9-4.7c-0.1-0.3,0.5-0.6,0.9-0.6c2.3-0.2,3.8-1.9,5.7-2.8c-1.8-2.4-1.5-4.2,0.8-5.1
		c0.8-0.3,1.5-0.3,2.2,0.3c1.6,1.4,1.6,1.4,3.3,0.1c0-0.3-0.3-0.4-0.5-0.4c-0.8-0.3-1.9-0.2-2.1-1.3c-0.2-1.1,0.6-1.7,1.4-2.3
		c1.6-1.3,1.5-4.7-0.3-5.8c-0.4-0.3-0.9-0.2-1.6,0.3c1.1,1.1,2.9,2,1.8,4c-0.6,1.1-1.5,1.6-2.7,1.6c-1.8,0.1-2.8-0.9-2.9-2.9
		c-2,1.2-3.4,2.4-4.8,3.6c-0.7,0.7-1.5,1.5-2.7,0.6c1.9-2.6,4.5-4.3,7.1-6c1.5-1,2.9-2.3,4.4-3.3c0.2-0.1,0.3-0.4,0.5-0.5
		c2.9-1,5-3.3,7.5-4.8c2.6-1.6,5-3.3,7.6-4.8c3.5-2,6.8-4.3,10.5-5.9c2.8-1.2,5.1-3,7.8-4.3c1.6-0.7,2.9-1.8,4.7-1.8
		c0.4,0,0.9-0.2,1-0.5c1-1.5,2.6-1.9,4.1-2.2c1-0.2,1.5-1.2,2.5-1.4c3.1-0.7,5.5-2.9,8.7-3.5c0.4-0.1,0.6-0.5,1-0.7
		c1.6-1,3.2-2.1,5.2-2.1c1.8,0,3.1-1.2,4.6-1.8c2.1-0.9,4.2-2.1,6.3-2.7c2.8-0.8,5.4-2.1,8.2-2.9c1.9-0.6,3.7-1.5,5.7-1.7
		c0.5-0.1,0.8-0.4,1.2-0.8c0.4-0.4,1-0.6,1.5-0.6c1.7,0.1,3.2-0.4,4.8-1.3c1.9-1.1,4.2-1,6.1-2c0.9-0.5,1.6-1.1,1.9-2
		c0.8-3.1,1.8-6.1,2.7-9.1c1-3.3,0.5-6.6,0.8-9.9c0-0.6-0.1-1.2-0.4-1.8c-0.6-1.3-1.4-2.5-1.6-4c-0.1-0.4-0.2-0.8-0.6-1
		c-1.2-0.5-1.7-1.6-2.7-2.3c-1.3-1-2.5-2.1-4.3-2.4c-2.4-0.5-4.7-1.3-7.1-1.8c-5.7-1.4-11.4-1.3-17.2-0.9c-2.7,0.2-5.4,0.6-8.1,0.7
		c-2.4,0.1-4.7,0.7-7,1.2c-0.2,0-0.5,0.2-0.7,0.2c-2.6-0.3-5,0.6-7.4,1.2c-2.7,0.7-5.4,1.3-8,2c-1.8,0.6-4,0.1-5.5,1.9
		c-0.1,0.1-0.5,0.1-0.7,0.1c-2.5-0.4-4.6,0.9-6.9,1.6c-2,0.6-4.2,1.1-6.2,1.7c-4.3,1.3-8.6,2.8-12.9,4.1c-2.5,0.8-5,1.5-7.4,2.5
		c-0.6,0.2-1.3,0.2-1.9,0.3c-0.7-1.1,0.4-1.4,1-1.7c1.2-0.7,2.6-1.4,3.7-2.3c1.3-1.1,2.6-1.6,4.4-0.8c1.2,0.6,2.3,0.2,2.4-1.3
		c0-1.4,0.6-1.6,1.8-1.3c0.8,0.2,1.6,0.7,2.2-0.2c0.6-0.8-0.2-1.5-0.5-2.2c-0.3-0.7-0.5-1.3-0.4-2.1c0.4-3-0.8-3.9-3.9-2.8
		c0,0.2,0.1,0.3,0.3,0.3c1.5,0,2.9,0.5,2.7,2.2c-0.2,1.6-1.9,1.3-3,1.3c-2.1-0.1-4.1-1.3-6.2-1.5
		C191.1,420.8,189.5,421.3,188.2,420.2z"/>
	<path class="st2" d="M313,329.1c-0.3,2.7-0.7,5.4-1.6,7.9c-0.1,0.4-0.3,0.8-0.3,1.1c0.2,2.6-1.6,4-3.1,5.7
		c-0.2,0.2-0.5,0.4-0.8,0.5c-5.2,1.3-9.8-2.5-8.5-7.3c0.8-2.8,1-5.8,2.1-8.5c0.2-0.6,0.1-1.3,0.2-1.9c0.1-1,0-2.1,0.6-3
		c0.2-0.3,0.2-0.9,0.2-1.4c0.1-3.4,0-6.9,0.2-10.3c0.1-2.5-0.6-4.9-1.7-7.1c-1.2-2.4-2.8-4.6-6.1-4.8c-1.7-0.1-3.3-1-5.1-0.8
		c-3.6,0.4-7.1,0.8-10.6,1.5c-1.5,0.3-2.7,1.4-4.1,1.8c-3.8,1.2-7.3,2.8-10.8,4.6c-2.1,1.1-4.2,2.1-6.4,3.1
		c-1.3,0.6-2.4,1.5-3.7,2.1c-2.5,1-4.3,3.1-7,3.8c-0.9,1.9-3.1,1.8-4.4,2.9c-1.7,1.5-3.8,2.4-5.4,3.9c-2.2,2-5,3.3-7.1,5.5
		c-0.8,0.9-2.2,1.3-3.2,2.2c-3.4,2.7-6.9,5.2-10.2,8c-1.8,1.6-3.7,3.1-5.6,4.7c-2.4,1.9-4.6,4.1-6.8,6.3c-0.7,0.8-1.9,1.1-2.7,1.9
		c-2.2,2.3-4.7,4.3-6.8,6.6c-2,2.1-4.4,4-6.1,6.5c-0.7,1.1-2,1.8-2.9,2.8c-0.9,0.9-2,1.6-2.4,2.9c-0.1,0.5-0.8,0.4-1.3,0.5
		c-0.7-1.2,0.3-1.7,0.8-2.4c3-3.7,6.3-7,9.6-10.4c1.5-1.6,2.7-3.5,4.8-4.6c0.7-0.4,1.1-1.1,1.2-2c0.1-0.6,0.1-1.4,0.8-1.6
		c2.1-0.5,1.4-1.4,0.5-2.4c-1.2-1.3-1.5-4.1-0.7-5.7c0.3-0.5,0.6-1,1.3-0.9c0.6,0,0.8,0.5,0.9,1c0.3,0.8,0.4,1.7,1.1,2.4
		c0.8,0.7,1.6,0.6,2.4,0.1c0.9-0.6,0.4-1.2,0-1.8c-1.6-2.6-2.4-5.1,0.4-7.6c-5.2,5.4-11.8,9.1-16.8,14.6c-3.2,3.5-6.7,6.6-10.1,9.9
		c-0.8,0.8-1.4,2.1-2.9,1.4c1.9-3.1,4.6-5.4,7.3-7.8c0.5-0.4,1-0.8,1.2-1.4c0.2-0.8,0.6-1.3,1.4-1.3c0.4,0,0.7-0.3,1-0.6
		c2.2-2.7,4.8-5,7.4-7.4c4.5-4.2,9.3-8.1,13.8-12.3c2.9-1,4.3-3.8,6.9-5.3c2.1-1.3,3.8-3.2,5.8-4.6c3.2-2.3,6-5,9.6-6.6
		c0.7-0.3,1-1,1.6-1.4c2.1-1.2,4.1-2.5,6.1-3.8c2-1.3,4-2.6,6-3.8c1.6-0.9,3.1-2,4.7-2.8c1.6-0.8,3.4-1.4,4.8-2.7
		c0.2-0.2,0.5-0.4,0.8-0.5c3.6-0.8,6.4-3.2,9.8-4.4c4-1.4,7.8-3.5,12.1-4.2c0.3-0.1,0.7,0,0.9-0.1c4.2-3,9.2-2,13.9-2.3
		c2.1-0.1,4.2-0.1,6.2,0.1c2.2,0.2,4.3,1.2,6.3,2.1c1.9,0.9,3.5,2.2,5.1,3.4c1.1,0.9,1.9,2.5,2.9,3.7c1.6,1.9,2.2,4.2,2.6,6.5
		c-1.3,0.6-1.4-0.6-1.8-1.3c-2.1-3.9-4.7-7.3-8.3-9.9c-2.2-1.6-3.6-1.5-5.3,0.5c-0.5,0.6-1.2,1.1-2,1.2c-1,0.2-1.6,0.7-1.6,1.8
		c0,1,0.3,1.7,1.2,2.2c0.2,0.1,0.4,0.3,0.6,0.3c5.8,1.7,7.3,6.5,7.7,11.7c0.3,4.8,0.2,9.6-0.1,14.5c-0.3,4-2.4,7.6-2,11.7
		c0.1,0.6-0.5,1.2-0.7,1.7c-0.7,1.5-0.1,3.3,1.3,4.1c3.1,1.8,6.7,0.4,7.1-3.1c0.3-2.8,1.7-5.3,2.2-8
		C311.4,329.8,311.5,328.5,313,329.1z"/>
	<path class="st3" d="M180,558.9c1.1,0.2,2.1-0.1,2.9-0.8c0.6-0.5,1.3-0.9,1.9-0.4c0.9,0.6,0.1,1.4,0,2.1c2.5,0.5,5.6-1,7.4,2.1
		c-0.5,0.7-1.3,0.7-2,0.9c-1.9,0.5-3.8,1-5.5,2.1c-1.6,1-1.5,1.7,0.1,2.6c0.6,0.3,1.2,0.5,1.8,0.5c0.6,0,1.1,0,1.5,0.5
		c-0.1,0.3-0.2,0.4-0.5,0.5c-2.5,0.4-4.9,1.9-7.5-0.3c-0.4,1.4,1.2,2,0.2,2.8c-1.1,0.9-2.5,1.4-3.8,1.7c-1.6,0.4-3,1-4.3,1.8
		c-6,2-12.1,3.5-18.4,3.5c-2.5,0-4.9-0.5-7.3-1.2c-3.2-0.9-5.4-3.2-7.3-5.8c-1.4-1.9-2.2-4-2.4-6.3c-0.4-5,0.6-9.6,2.7-14.1
		c1.4-2.8,2.7-5.7,4.4-8.4c3.4-5.2,7.2-10.3,11.4-14.9c3.6-4,7.6-7.6,11.4-11.4c3.4-3.4,7.4-6,10.7-9.4c0.3-0.3,0.7-0.4,1.1-0.5
		c0.7,0.1,1.3,0,1.8-0.5c1.3-1.7,3.3-2.5,4.7-4c0.3-0.4,0.7-0.7,1.2-0.6c0.6,0.2,0.6,0.7,0.5,1.2c0,1.2,0.3,2,1.7,2.1
		c1.7,0.1,2.4-0.2,2.9-1.5c0.3-0.8,0.2-1.4-0.6-2.1c-0.7-0.6-1.6-0.6-2.4-1.4c0.7-1.1,1.8-1.1,2.8-1.2c0.4-0.1,1,0.2,1,0.5
		c0,1.6,1.6,2.6,1.7,4.1c0,1-0.4,1.8-1.4,2.3c-0.6,0.3-1.1,0.6-1.5,1.1c-0.6,0.8-0.4,1.4,0.6,1.5c1.1,0.1,1.8,0.6,2.5,1.2
		c-0.2,1-1.3,0.6-1.9,1.2c-0.4,0.5-0.9,1.4-1.7,1.2c-0.8-0.2-0.8-1.1-1-1.7c-0.3-0.8-1-1-1.8-0.7c-0.4,0.2-0.7,0.3-1,0.6
		c-1.4,1.1-1.4,2.1,0,3.2c0.3,0.2,0.7,0.3,1.5,0.7c-3,1.1-4.8,3.8-8.4,3.5c1.3,1.6,0.9,2.7-0.4,3.6c-0.3,0.2-0.4,0.7-0.4,1.1
		c-0.5,1.3-1.6,2.2-2.5,3.2c-4.2,4.3-8.8,8.2-12.6,12.8c-4.7,5.7-9.6,11.3-12.2,18.5c-0.6,1.6-1.8,2.8-1.9,4.6
		c-0.1,3,0.7,3.8,3.7,4.1c5.6,0.4,10.8-0.9,15.9-2.8c1-0.4,2-0.7,3-0.9c1.6-0.1,3.1-0.6,4.5-1.5c0.2-0.1,0.3-0.3,0.5-0.4
		c0.4-0.3,0.8-0.7,1.3-0.9C179.2,558.5,179.6,558.6,180,558.9z"/>
	<path class="st4" d="M355.2,439.1c1.6-0.3,3.2-0.1,4.8-0.1c1.4,0.6,2,1.6,1.9,3.2c-0.4,3.5,0.4,6.8,1.3,10.1
		c0.1,0.2,0.1,0.5,0.3,0.7c2.4,1.6,1.8,3.3,0.1,5c-0.2,0.2-0.2,0.6-0.2,1c0.7-0.9,0.8-2.4,2.3-2.2c-0.1,1.1-0.7,1.9-1.2,2.8
		c-3.1,5-6.2,10.1-9.1,15.3c-1.4,2.5-2.9,4.9-4.4,7.3c-1.1,1.7-1.5,3.8-2.9,5.3c-0.4,0.4-0.9,1.1-0.3,1.7c0.5,0.6,1.2,0.2,1.8-0.1
		c2.1-1,4.1-2,6.2-3.1c2.2,1,4.6,1.7,6.6,3.3c0.9,0.7,1.9,1.2,1.2,2.4c-0.7,1.2-1.6,0.5-2.4,0.1c-1.9-1-3.1,0.1-4.4,1.2
		c0.6,0.7,1.3,0.3,1.9,0.3c0.6,0,1.4-0.3,1.6,0c1.5,1.8,3.6,1,5.5,1.4c-0.1,0.1-0.1,0.4-0.2,0.4c-2.5,1.1-4.7,2.6-7.4,3.4
		c-1.3-0.8-2.1,0.5-2.8,0.6c0.1-0.1,0.5,0.1,0.9,0.4c-1.6,1.1-3.5,1.4-5.2,2.1c-3.2,1.4-6.4,1.2-9.6,1.1c-2.5-0.1-5.9-2.9-6.8-5.2
		c-2-4.7-0.7-9.2,0.5-13.7c0.6-2.2,1.6-4.3,2.5-6.4c0.3-0.8,0.4-1.7,1.4-2.1c0.2-0.1,0.4-0.4,0.4-0.6c0.4-3.4,2.8-5.8,4.4-8.6
		c1.7-3,3-6.3,5.4-8.9c0.6-0.7,0.8-1.6,1.2-2.3c0.7-0.4,1.6-0.7,1.3-1.7c-0.2-1.1-1.2-1.2-2.1-1.1c-3.5,0.4-7.1,0.4-10.6,1.2
		c-0.9,0.2-1.7,0.3-2.6,0.3c-0.9,0-1.9,0.1-2-1.1c-0.1-1.3,1-1.8,2.1-1.8c1.8,0.1,3.5-0.2,5.4-1.1c-1.8-0.7-3.1-1.9-5-2.1
		c-1.1-0.1-2.2-0.5-2.1-1.8c0.1-1.5,1.3-1.7,2.4-1.8c0.7-0.1,1.3,0,2-0.1c-0.3,0-0.6,0-1-0.1c-0.8-0.1-1.9-0.1-1.9-1.1
		c0-1.2,1.1-1.1,2-1.2C344,440.6,349.5,439.6,355.2,439.1z"/>
	<path class="st5" d="M167.5,438.3c-0.4,0.4-0.9,0.6-1.5,0.6c-4.1,0-8.1,0.4-12.2-0.2c-2-0.3-3.5-1.4-5-2.4c-3.1-2-5-5.2-7-8.2
		c-0.2-0.4-0.2-0.9-0.3-1.4c-0.9-4.9-1.2-9.8-0.1-14.7c1-4.4,2.7-8.4,4.5-12.4c1.5-3.4,3.8-6.4,5.5-9.6c1.5-2.7,3.6-5,5.1-7.7
		c0.2-0.3,0.6-0.5,0.9-0.8c1.5-1.7,2.8-3.6,4.4-5.3c0-0.4,0-0.7,0.4-1c0.6-0.6,1.1-1.2,1.5-1.9c0.6-0.8,0.9-2,2-2.4
		c0.6-0.5,1.4-0.8,1.9-1.5c1.5-2.6,3.7-2.2,6-1.4c1.6,0.6,2.2,2.4,1.3,4.2c-0.7,1.5-2.1,2.1-3.5,1c-1.6-1.1-2.6-1.3-3.4,0.7
		c-0.3,0.7-1.1,1.2-1.5,1.9c-0.4,0.6-1,0.9-1.6,1.5c1.7,0.6,3.4,1.1,4.9,2c2.6,1.4,2.7,2.1,1,4.4c-0.7,1-1.6,1.3-2.7,0.5
		c-1.2-0.9-2.6-1.2-4.2-1.9c0.7,1.6,1,3.1,1.9,4.4c1.3,2,0.4,3.8-1.9,4c-0.7,0.1-1.3,0-1.5,0.8c1.6,0.1,1.6,0.1,1.9,1.3
		c-2.3,3.8-4.8,7.4-6.7,11.4c-1.1,2.3-2,4.7-2.9,7c-0.2,0.5-0.3,1.1-0.9,1.3c-0.9,3.8-1.7,7.6,0.1,11.3c0.9,1.8,2.3,2.7,4.3,2.9
		c3.1,0.3,6-0.3,9-0.8c0.9-0.1,2.1-0.9,2.5,0.3c0.4,1.2-0.8,1.7-1.8,2.1c-0.3,0.1-0.6,0.2-0.9,0.6c0.6,1.2,1.7,1.4,2.9,1.5
		c1.5,0.1,2.8,0.4,4.2,0.9c0.7,0.3,1.7,0.4,1.5,1.5c-0.3,1-1.3,1.5-2.1,1.1c-3-1.5-6-0.5-8.6,0.5c-3.2,1.1-6.2,1.3-9.3,0.7
		c-0.5-0.1-0.9-0.2-1.4-0.3c3,0.3,5.9,1.6,9.2,0.7c2.5-0.7,5.3-0.4,7.9-1.6c1.4-0.7,3.2,0.4,4.8,0.8c0.3,0.1,0.5,0.4,0.6,0.7
		c0,0.5-0.3,0.6-0.7,0.8c-0.9,0.4-1.9,0.4-2.8,0.6l-0.1,0.1C171,437.5,169.2,437.6,167.5,438.3z"/>
	<path class="st6" d="M412.8,327.1c4.4-2.6,9-4.2,14.1-3.7c3.9,0.4,7.9,4,9.1,7.8c1.1,3.5,0.4,6.9-0.3,10.3
		c-0.5,2.2-1.2,4.3-2.3,6.2c-2.1,3.8-3.8,7.8-6,11.6c-2.7,4.6-5.1,9.3-8.3,13.6c-0.7,0.9-1.3,1.9-1.6,3.1l0,0
		c-1.4,1.6-2.7,3.3-3.8,5.2c-0.4,0.8-0.8,1.8-2.1,1.5c-1-0.2-3-2.9-2.8-3.6c0.4-1.3,1.3-2.2,2.8-2.2c0.7,0,1.6,0.9,2.1-0.2
		c0.5-1-0.2-1.6-0.7-2.3c-0.9-1.2-1.4-2.6-2.5-3.7c-1-1-0.1-2.1,0.5-3c1.6-2.3,1.6-3.5,0-5.8c-0.9-1.2,0.3-1.7,0.5-2.6
		c0.2-1,1.1-1,1.9-0.9c0.9,0.1,1.5,0.9,2.5,0.7c-2.5-2-2.6-2.7-1.1-5.6c0.6-1.1,1.2-2.3,1.7-3.4c1.1-2.6,2.2-5.1,3.3-7.7
		c0.1-0.1,0.2-0.2,0.3-0.4c0.3-0.6,0.8-1.4,0.3-2c-0.7-0.8-1.4-0.1-2,0.4c-0.1,0.1-0.3,0.1-0.4,0.2c-0.7,0.3-1.5,0.4-2.2,0.9
		c-1.8,1.2-2.5,0.9-3.5-1.1c-0.6-1.1-0.6-2.3-0.7-3.5c0-1.7-0.4-3.1-2.5-3.5c-1.6-0.3-1.8-1.3-0.8-2.7c1.5-2.2,3.2-2.8,5.9-1.8
		C413.6,328.3,412.5,328.2,412.8,327.1z"/>
	<path class="st7" d="M365.7,456.7c-0.7,0.4-1.2,1-1.4,1.8c-0.2,0.8-0.8,1.3-1.7,1.9c0.1-1,0.5-1.8,0.2-2.6c-0.2-0.6,0.3-0.9,0.8-1
		c0.6-0.1,0.9-0.6,1.1-1.1c0.2-0.5,0.2-1.1-0.4-1.2c-1.5-0.2-1.6-1.4-1.8-2.4c-0.1-1-0.4-2-0.8-3c-0.3-0.7-0.4-1.3-0.3-2.1
		c0.2-0.9,0.1-1.7-0.3-2.6c-0.2-0.4-0.3-1-0.1-1.4c0.9-1.7,0-2.9-1-4c0.1-0.1,0.2-0.1,0.3-0.1c1.2-0.5,0.9-1.9,1.6-2.8
		c0.1-0.5,0.4-0.8,0.9-1c0.6-0.3,0.1-1,0.6-1.3c1.5-2.9,3.3-5.8,5.3-8.4c2.6-3.5,4.6-7.4,7-11c1.2-1.7,2.3-3.5,3.5-5.3
		c2.6-3.9,5.2-7.9,7.8-11.8c0.3,0.2,0.5,0.6,1,0.3c-0.4,0-0.7-0.1-1-0.3c0.6-1.8,2.1-3.1,2.8-4.8c0.1-0.4,0.6-0.5,1-0.5
		c1.5,3,2.5,5.9,0.4,9.2c-1,1.5-0.8,3.7-0.5,5.6c0.1,0.8,0.7,1.2,1.4,1.5c1.6,0.5,2.2,1.4,1.4,3.1c-1,2.1-1.6,2.5-3.6,2
		c-0.4-0.1-0.7-0.4-1.2-0.2c0.1,1.2,1.4,2,1.2,3.3c1.6-2.6,3.8-4.6,4.8-7.5c0.3-1,1.2-1.5,2.3-0.9c-0.4,1.7-1.4,3-2.4,4.3
		c-2.3,3.2-4.2,6.7-6.5,10c-1.9,2.7-3.6,5.5-5.4,8.2c-0.3,0.4-0.5,0.8-1,1c-2.2,2.9-4,5.9-5.7,9.1l0,0c-1,0.9-1.4,2.1-1.9,3.3
		c-0.2,0.2-0.4,0.4-0.6,0.6c-0.4,0.8-1.1,1.4-1.3,2.3l0,0c-0.6,0.7-1.2,1.4-1.4,2.4l0,0c-1.6,1.5-2.1,3.6-3.4,5.2
		c-0.2,0.2-0.4,0.3-0.5,0.5C366.2,455.4,366.3,456.2,365.7,456.7L365.7,456.7z"/>
	<path class="st8" d="M396.9,407.8c-1,0.2-1.9,0.4-2,1.8c0,1-1,1.8-1.5,2.6c-1.1,1.7-2.3,3.4-3.3,5.2c-0.2,0.3-0.5,0.4-0.8,0.3
		c-0.2-0.1-0.4-0.3-0.3-0.6c0.6-1.3,0.1-2.3-0.9-3.2c-0.2-0.2-0.2-0.4-0.3-0.7c0-0.5-0.7-1.1-0.1-1.5c0.4-0.3,0.9,0.1,1.3,0.3
		c0.7,0.5,1.3,1,2.2,0.8c1-0.2,2.3-2.4,2-3.4c-0.2-0.5-0.5-0.7-1.1-0.8c-1.9-0.5-2.3-1-2.4-2.9c-0.1-1.4,0.5-2.8,0.1-4.2
		c-0.1-0.3,0.2-0.8,0.5-1.1c2.1-1.6,1.4-3.7,0.9-5.7c-0.2-1-0.7-2-0.6-3c3.3-5.9,7.1-11.4,10.7-17.2c2.4-3.8,4.7-7.5,7.1-11.3
		c2.7-4.2,5.1-8.6,7.6-12.9c0.1-0.2,0.4-0.3,0.6-0.4c0.2,1.5-0.9,2.5-1.5,3.7c-0.3,0.7-0.7,1.5-0.8,2.2c-0.2,1,0.7,2,1.7,2.2
		c0.4,0.1,1-0.3,1.1,0.5c0,0.5-0.1,1-0.5,1.3c-0.4,0.3-0.9,0.3-1.3,0c-0.6-0.4-1.2-0.8-1.9-1c-0.4-0.2-1.1-0.2-1.3,0.3
		c-0.2,0.8-1,1.3-0.9,2.1c0,0.1,0.1,0.2,0.1,0.2c2.1,0.3,1.4,1.9,1.5,3.1c0.1,1.4-0.3,2.4-1.3,3.4c-1.4,1.4-1.3,1.8,0.2,3
		c0.5,0.4,1,0.8,1.1,1.5c0,0.9,0.6,1.4,1.2,2c0.9,0.8,1.1,2.1,0.5,3c-0.5,0.7-1.1,1.3-1.9,0.4c-0.5-0.5-1-0.8-1.7-0.4
		c-0.7,0.4-1.2,1-1.5,1.8c-0.2,0.5,0.1,0.8,0.5,1c0.5,0.3,0.9,0.6,1.3,1c0.3,0.4,0.4,0.9,0.9,1.1c0.6,0.1,1-0.4,1.1-0.7
		c0.5-2.3,2.7-3.4,3.7-5.4c0.1-0.2,0.6-0.2,0.9-0.3c-2.6,4.1-5.1,8.2-7.7,12.2c-3.2,5.1-6.5,10.1-9.8,15.1
		C399.1,404.9,398,406.3,396.9,407.8z"/>
	<path class="st9" d="M313,329.1c-0.5,0-0.9,0.2-1,0.8c-0.2,1-0.4,2-0.5,3c-0.1,0.4,0.1,0.9-0.3,1.1c-1.4,0.9-1.2,2.3-1.1,3.6
		c0.1,2-1.4,3.3-2.1,4.9c0,0.1-0.1,0.1-0.2,0.1c-2,0.5-3.9,0.2-5.8-0.3c-1.6-0.4-2.1-2-2.4-3.6c-0.1-0.7-0.1-1.5,0.6-1.9
		c0.8-0.5,1-1.3,0.7-2.1c-0.6-1.8,0.1-3.3,0.8-4.8c0.5-1,0.8-2.1,0.7-3.2c-0.1-1.3,0.1-2.5,0.4-3.8c0.4-1.7,0.6-3.3,0.2-5.1
		c-0.3-1.4-0.3-3,0.2-4.5c0.6-1.5-0.2-3-0.3-4.4c-0.1-1.1-0.5-2.3-0.5-3.4c0-0.6-0.3-1.1-0.7-1.5c-0.7-0.7-1.2-1.4-1.3-2.5
		c0-1-1-1.5-1.8-1.7c-1.4-0.5-2.7-1.3-4.1-1.9c-1.2-0.6-1.6-1.7-1.3-3.6c0.2-1.1,0.9-1.4,1.9-1.4c1.1,0.1,1.9-0.4,2.2-1.5
		c0.3-1.1,1-1.4,2.1-1.4c1.5,0,2.9,0.1,4,1.4c1,1.1,2.4,1.8,3.5,2.9c0.6,0.7,1.2,1.3,1.5,2.1c0.1,0.2,0.1,0.6,0.3,0.7
		c2.3,1.2,2.5,3.7,3.6,5.7c0.1,0.1,0.4,0.2,0.7,0.2c0.9,0.8,0.4,1.9,0.7,2.9c1.5,5.5,0.8,11.2,0.5,16.8
		C314.1,324.9,313.7,327,313,329.1z"/>
	<path class="st10" d="M164.2,392.8c-0.1-0.5-0.3-1-0.9-0.8c-0.5,0.1-1,0.4-1.6,0.6c-0.5-0.6,0.1-1.2,0.2-1.8
		c0.1-0.9,0.6-1.6,1.6-0.8c1,0.7,1.5,0.1,1.9-0.5c0.5-0.7,1-1.5,0-2.3c-0.9-0.7-1.3-1.5-1.3-2.7c0-0.8-0.7-1.2-1.2-1.7
		c-0.3-0.3-0.5-0.6-0.2-1c0.2-0.3,0.6-0.4,0.9-0.3c1.6,0.9,3.6,0.9,4.9,2.3c0.7,0.7,1.2,0.5,1.8-0.1c1.6-1.5,1.3-3.6-0.8-4.1
		c-1.7-0.4-3.1-1.7-4.9-1.6c-0.6,0-0.8-0.5-0.7-1c0-0.6,0.4-0.8,1-0.6c0.3,0.1,0.7,0,0.8-0.3c0.9-1.8,2.8-2.8,3.1-5
		c1.2,0.2,2,0.8,2.8,1.4c1.4,1.1,2.5,0.8,3.1-0.9c0.7-1.9,0.1-2.9-2-3.2c-0.2,0-0.6,0-0.7-0.1c-1.7-1.5-2.5,0-3.5,0.9
		c-0.8,0.8-1.3,1.9-2.7,1.6c1.6-2.4,3.5-4.6,5.6-6.7c0.7-0.7,1.4-1.3,1.6-2.3c0.2-1,1-1.1,1.8-1.2c1.1,0.1,1.7-0.9,2.3-1.5
		c1.5-1.6,3.2-3.1,4.9-4.5c1.2-1,2.2-2.2,3.3-3.4c0.9-0.9,1.8-1.8,2.7-2.7c2.4-2.2,4.8-4.4,7.2-6.5c2.1-1.8,4.3-3.5,6.7-4.9
		c0.4-0.3,0.7-0.6,0.8-1.1c0-0.2,0-0.5,0.1-0.7c0.4-0.8,0.9-1.5,1.8-1.8c0.3-0.1,0.7,0.2,0.7,0.5c0.3,0.9-0.3,1.5-0.8,2.1
		c-1.6,2-1.4,4.4,0.5,6.5c0.3,0.3,0.6,0.5,0.8,0.7c0,0.8-0.6,1-1,1.3c-2.2,1.5-3.8,0.9-4.5-1.8c-0.1-0.5,0.3-1.5-0.7-1.5
		c-0.8,0-0.8,0.9-0.8,1.5c0,0.4,0.1,0.8,0,1.2c-0.6,1.4-0.4,2.4,1.1,3.1c0.8,0.4,0.9,1.3,1.1,2c0.3,1-0.2,1.4-1.1,1.2
		c-1.3-0.3-1.5,0-1.3,1.3c0.2,1.7-1.3,2.5-2.5,3.1c-1.1,0.6-1.7,1.3-2.4,2.2c-0.9,1.2-1.8,2.4-3,3.3c-3.4,2.8-5.9,6.4-8.9,9.6
		c-0.2,0.2-0.2,0.6-0.2,0.9c-1,2.1-2.9,3.6-4.4,5.3c-2.6,3.1-5,6.4-7.7,9.4C167.3,387.8,166.2,390.7,164.2,392.8z"/>
	<path class="st11" d="M407,454.3c2.1-2,4.6-3.4,7-4.9c3.6-2.2,7.1-4.5,10.9-6.4c3.1-1.6,6.1-3.4,9.3-4.8c2.4-1,4.9-0.6,7.2,0.7
		c1.5,0.8,2.6,4.6,1.9,6.6c-0.7,2-1.6,3.6-3.9,4.4c-2.5,0.9-4.9,2.3-7.3,3.5c-3.3,1.7-6.7,3.4-9.6,5.7c-0.5,0.4-1,0.4-1.6,0.5
		c-2.1,1.3-4.3,2.4-6.4,3.7c-0.6,0.4-1.2,1.1-1.8,0.4c-0.6-0.8,0-1.5,0.6-2.1c0.3-0.3,0.8-0.5,1.1-1c-1.7,0.9-2.8,2-3.1,3.9
		c-0.2,1.2-1.1,2-2.2,1.5c-1.5-0.7-2.6-0.1-3.9,0.3c-1.1,0.3-2.3,0.9-3-0.5c-0.5-1.2,0.2-2.2,1.1-2.9c0.8-0.7,1.8-1.1,2.6-1.8
		c0.8-0.7,1.5-1.6,1.3-2.7c-0.2-1.3-1.3-0.4-2-0.5c-1.1-0.3-1.5-1-0.7-1.9C405.2,455.3,406.1,454.7,407,454.3z"/>
	<path class="st12" d="M172.8,437c0.9-0.7,2.2-0.4,3.1-1.3c-0.2-0.9-1-0.4-1.5-0.6c-2.1-0.7-4-0.9-5.9,0.8c-0.6,0.5-2,0.2-3,0.2
		c-1.3,0.1-2.7-0.2-3.9,0.7c-0.6,0.5-1.4,0.3-2.1,0c-1.4-0.5-2.7-0.9-4.2-0.8c-0.9,0.1-1.7-0.5-2.5-0.8c-0.4-0.2-1.1-0.1-0.9-0.8
		c0.2-0.6,0.9-0.9,1.4-0.5c1,0.9,2.3,0.7,3.4,1.1c1.6,0.4,3.5,0.7,4.7,0c2-1.1,4.1-1,6-1.7c1.7-0.6,3.4-0.9,5,0.2
		c0.3,0.2,0.8,0.2,1.1,0.3c0.6,0,1.3-0.1,1.4-0.7c0.2-0.9-0.7-0.6-1.2-0.8c-1.5-0.6-3-1-4.7-0.9c-1.5,0.1-2.5-1-3.5-1.8
		c-0.5-0.4-0.2-0.8,0.2-1.1c0.5-0.3,1-0.4,1.6-0.4c0.7,0,1.2-0.3,1.6-0.9c0.1-0.2,0.2-0.5,0.1-0.6c-0.1-0.2-0.4-0.3-0.6-0.3
		c-0.3,0-0.7,0-0.9,0.1c-2.2,0.9-4.5,0.7-6.8,1.2c-1.8,0.3-3.6-0.2-5.4-0.7c-2-0.6-2.4-2.5-2.8-4.2c-0.6-3.1-0.4-6.3,0.5-9.4
		c0.1-0.2,0.3-0.3,0.5-0.5c-0.1,2.6-0.8,5.2-0.6,7.8c0.2,2.5,1.6,4.2,3.4,5.8c0.6,0.5,1.3,0.4,2,0.4c4.1,0.1,8-0.7,12-1.6
		c0.8-0.2,1.6-0.3,2.3-0.4c0.1,1.4-1,1.1-1.7,1.2c1.5,0.2,3.2,0.5,4.5-0.7c-0.9-0.1-2,0.4-2.9-0.5c0.4-0.7,1.1-0.7,1.7-0.7
		c2.7-0.2,5.1-1.3,7.6-1.8c1.4-0.2,2.5-1.2,4-1.5c0.7-0.1,1.4-0.3,2.1-0.3c2.4-0.1,4.8,0,7.1,0.5c0.4,0.1,0.9,0.1,1.1,0.3
		c1.6,1.3,3.2,0.6,4.9,0.4c-0.6-1.9-0.6-1.9-2.3-1.8c-0.4,0-0.8,0.1-1.2-0.2c-0.6-0.4-0.7-0.9-0.2-1.4c0.6-0.5,1.4-0.9,2.2-0.8
		c0.4,0,0.8,0.1,1.2,0.2c3,0.7,3,0.7,2.1,3.7c-0.2,0.6-0.3,1.3,0.3,1.8c0.3,0.3,0.5,0.6,0.6,1c0.2,0.7,1.4,1.2,0.4,2.1
		c-0.8,0.7-1.8,1.2-2.9,0.5c-0.4-0.3-0.7-0.6-1.4-0.5c-0.5,0.7,0.8,1.2,0.4,1.8c-0.4,0.6-1.1,0.9-1.7,1.3c-0.6,0.4-1.1,0.5-1.9-0.1
		c-1.5-1.1-1.9-1-3.3,0.2c-1.4,1.2-3,2.1-4.7,2.8c-0.5,0.2-0.8,0.5-0.8,1c-0.7,0.7-1.7,0.4-2.5,0.6c-2.7,0.7-5.2,1.9-7.9,2.4
		C176.1,436.5,174.5,437.2,172.8,437z"/>
	<path class="st13" d="M365.6,494.6c-1.2-0.1-2.1,0.4-3.1,1c-1,0.7-1.3,0.5-1.2-0.7c0.1-0.9-0.2-1.2-1-1.2c-0.9,0-1.7,0-2.6,0.3
		c-0.6,0.2-1.5,0.4-1.9-0.4c-0.5-1,0.4-1.5,1.1-1.8c0.9-0.5,1.9-0.9,2.8-1.3c0.7-0.3,1.2,0.1,1.6,0.6c0.4,0.5,0.8,1,1.6,0.7
		c0.3-0.1,0.4-0.5,0.4-0.8c-0.1-0.8-0.6-1.1-1.3-1.1c-0.4,0-0.7-0.2-1-0.5c-1-1.2-2.4-1.8-4-1.9c-0.9,0-1.3-0.6-1.3-1.4
		c4.7-2.7,9.6-5.3,14.2-8.3c5.3-3.4,10.6-6.6,15.8-10.1c1.9-1.3,3.6-2.9,6-3.3c0.4,1.3-0.8,1.5-1.4,2.1c-0.6,0.6-1.5,0.9-2.2,1.4
		c2.1,1.9,2,3.5-0.4,4.9c-1.9,1.1-2.8,2.1-1,4c0.3,0.3,0.3,0.9,0.4,1.3c0.2,1.3,0.9,1.3,1.8,0.6c1.9-1.4,4.1-2.1,6-3.4
		c0.6-0.4,1.4-0.9,2.2-0.3c-2.3,2.2-5.2,3.6-7.9,5.3c-2.7,1.7-5.3,3.5-7.9,5.2c-2.9,1.9-5.8,3.6-8.8,5.2c-1.3,0.7-2.3,1.6-3.6,2.3
		C367.8,493.5,366.7,494.2,365.6,494.6z"/>
	<path class="st14" d="M355.2,439.1c-1.2,0.6-2.6,0.8-3.9,0.8c-3,0.1-5.8,0.8-8.7,1.2c-1.2,0.2-2.4,0.3-3.5,0.3
		c-0.9,0-1.7,0.1-2.4,1.1c1.2,0.6,2.4,0.2,3.5,0.4c0.5,0.1,1,0.1,1,0.7c0,0.6-0.6,0.7-1.1,0.7c-1.2,0-2.4,0-3.6,0
		c-0.7,0-1.3,0.3-1.4,1.1c-0.1,0.9,0.6,1.4,1.4,1.3c1.5-0.2,2.6,0.4,3.7,1.4c0.7,0.6,1.6,0.6,2.5,0.6c0.3,0,0.6,0,0.8,0.4
		c0.1,0.4-0.1,0.7-0.4,0.8c-2,0.5-3.7,1.8-5.9,1.2c-0.4-0.1-0.8,0-1.2,0c-0.7,0.1-1.3,0.4-1.3,1.1c0,0.8,0.7,0.8,1.2,0.7
		c0.8,0,1.8,0.3,2.5-0.5c0.2-0.2,0.5-0.3,0.6-0.3c2.4,0.8,4.7-0.6,7.1-0.2c0.6,0.1,1.3,0.2,1.8-0.3c0.7-0.7,1.4-0.3,2.2-0.2
		c1.1,0.1,2,0.6,2,1.7c0,1.1-0.8,1.7-1.9,1.7c0.2-0.6,1.3-0.9,0.7-1.8c-0.4-0.6-1.1-0.7-1.7-0.6c-3.5,0.3-6.9,0.3-10.4,1.2
		c-2.3,0.6-4.7,0.6-7.1,0.8c-1,0.1-2.1-0.1-3,0.4c-1.9,0-3.8-0.1-5.6,0.7c-1.2,0.5-2.6,0.3-4,0c-1.5-0.4-3-0.1-4.2,1
		c-0.7,0.7-1.1,0.8-1.7,0c-0.5-0.8-1.1-0.7-1.8-0.1c-0.3,0.3-0.7,0.7-1,1c-0.9,0.8-1.3,0.7-2.1-0.3c-1.2-1.6-1.5-1.7-3.2-1.1
		c-0.8,0.3-1.6,0.8-2.4,0c-0.1-0.1-0.2-0.5-0.2-0.6c0.7-0.9,1.7-1.5,2.7-1.1c2.1,0.7,3.9,0,5.8-0.5c1-0.3,1.6-1,2-1.9
		c0.5-1.2-0.1-2.1-1.4-1.9c-0.5,0-0.9,0.3-1.4,0.4c-1.2,0.1-2.7-1.4-2.6-2.6c0-0.2,0.2-0.5,0.4-0.6c0.3-0.1,0.6-0.1,0.9-0.2
		c2.8-0.3,5.3-1.4,8-1.9c0.6-0.1,1.2-0.4,1.6-0.9c0.1-0.1,0.2-0.2,0.4-0.3c6.4-0.9,12.8-2.4,19.3-3.2c4.2-0.5,8.5-0.8,12.8-1.7
		C352.4,438.8,353.8,439.1,355.2,439.1z"/>
	<path class="st15" d="M397,475c-2.1,0.3-3.5,2.1-5.5,2.8c-1.1,0.4-2.1,1-3,1.9c-1,1-2,0.5-2.1-0.9c-0.1-1.2-0.4-2.1-1.3-3
		c-1-1-0.8-1.7,0.3-2.5c0.5-0.4,1.1-0.6,1.7-0.9c0.6-0.3,1-0.7,1.4-1.3c0.9-1.5,0.8-1.8-0.9-2.4c-0.4-0.1-1.1,0-1-0.7
		c0-0.5,0.6-0.7,1-0.8c1.6-0.6,2.9-1.6,3.9-2.9c0.3-0.7,0.9-1.1,1.5-1.5c4.1-2.7,8.2-5.4,12.4-8.1c0.5-0.3,1-0.5,1.6-0.4
		c-0.6,0.8-1.3,1.4-2.1,1.9c-0.3,0.2-0.7,0.5-0.4,1c0.2,0.4,0.6,0.4,1,0.2c0.7-0.2,1.4-1.1,2.1-0.2c0.6,0.9,0.3,1.8-0.1,2.7
		c-0.6,1.5-1.8,2.2-3.1,2.8c-1,0.5-1.7,1.2-1.9,2.3c-0.2,0.9,0.3,1.3,1,1.1c0.9-0.2,1.8-0.6,2.7-1c0.9-0.4,1.7-0.6,2.7,0.1
		c1.1,0.7,1.8,0.4,1.8-1c0-2.8,2.2-3.6,4.1-4.7c0.2-0.1,0.6-0.1,1,0.3c-0.5,1.5-2.7,1.7-3.2,3.4c0.7,0.6,1.2,0,1.6-0.2
		c1.8-1.1,3.5-2.1,5.3-3.2c0.4-0.3,0.9-0.3,1.4-0.2c-0.4,0.4-0.7,0.9-1.2,1.2c-3,1.5-5.8,3.6-8.7,5.3c-3,1.8-5.9,3.8-8.8,5.7
		C400.5,472.9,398.7,473.9,397,475z"/>
	<path class="st16" d="M412.8,327.1c0.4,1,1.3,1,2.2,1c0.4,0,0.9,0,0.9,0.5c0,0.6-0.4,0.8-0.9,0.9c-0.6,0.1-1.2,0-1.8-0.3
		c-1.2-0.6-2.8-0.3-3.5,0.7c-0.1,0.1-0.2,0.3-0.2,0.4c0,0.9-1.5,1-1.2,1.9c0.3,0.9,1.4,0.5,2.1,0.7c1.4,0.3,1.6,1.6,1.9,2.7
		c0.2,0.7,0.1,1.6,0,2.4c0,0.9,0.3,1.7,0.7,2.5c1,1.6,1.1,1.7,2.7,0.6c0.7-0.5,1.4-0.6,2.2-0.5c-4.1,2.6-8.4,5-11.8,8.7
		c-3,3.2-8.3,3.3-11.3-1c-1.5-2.1-1.3-6.6,0.5-8.6c2.9-3.3,6.4-5.8,10-8.2C407.8,329.9,410.2,328.3,412.8,327.1z"/>
	<path class="st8" d="M417.6,376c-0.3-1.4,0.6-2.5,1.4-3.4c2-2.4,3.2-5.3,4.9-7.9c0.7-1.1,1.5-2.2,2.1-3.4c2-4,4.5-7.8,6.1-12
		c0.3-0.7,0.7-1.2,1.4-1.5c-0.2,2.1-1.6,3.8-2.4,5.6c-2.6,5.6-5.9,10.9-9.1,16.2C420.6,371.8,419,373.9,417.6,376z"/>
	<path class="st1" d="M172.3,575.1c1.1-1.3,2.3-2.5,4.2-2.3c1,0.1,1.6-1,2.6-1c0.5,0,1-0.2,1.1-0.8c0.1-0.7-0.6-0.6-1-0.7
		c-0.4-0.1-0.6-0.4-0.6-0.9c0.1-0.4,0.4-0.8,0.8-0.8c1.1-0.2,2.3-0.5,3.1,0.4c0.6,0.6,1,0.6,1.6,0.4c1.1-0.5,2.3-0.5,3.5-0.4
		c-3.5,1.4-7,2.9-10.4,4.5C175.8,574.3,174,574.6,172.3,575.1z"/>
	<path class="st4" d="M375.9,440.4c-0.1-1.5,0.9-2.6,1.7-3.8c0.7-1.2,1.8-2.2,2.2-3.7c0.3-1,1.1-1.2,1.9-1.6
		c-0.4,2.4-2.4,3.8-3.4,5.9C377.6,438.4,376.7,439.3,375.9,440.4z"/>
	<path class="st13" d="M356.2,499.5c-0.8-0.3-1.6,0.7-2.7-0.1c1.5-0.6,2.5-1.8,4.2-1.8c0.8,0,0.6,0.5,0.5,0.9
		C357.4,498.8,356.8,499.1,356.2,499.5z"/>
	<path class="st4" d="M367.2,454.3c0.6-2.1,1.4-4.1,3.4-5.2c-0.9,1.6-1.7,3.2-2.6,4.8C367.8,454.2,367.5,454.3,367.2,454.3z"/>
	<path class="st10" d="M161.7,376c-1.1,2-2.4,3.9-4.4,5.3C158.5,379.3,159.6,377.3,161.7,376z"/>
	<path class="st12" d="M167.5,438.3c0.7-1.4,2.3-0.7,3.3-1.2c0.5-0.3,1.2-0.1,1.9-0.1C171.1,438,169.3,438.1,167.5,438.3z"/>
	<path class="st4" d="M361.9,436.1c0,2.4,0,2.4-1.6,2.8C360.6,437.8,360.8,436.7,361.9,436.1z"/>
	<path class="st4" d="M373.9,443.7c-0.2-1.6,0.6-2.6,1.9-3.3C375.4,441.6,375,442.9,373.9,443.7z"/>
	<path class="st4" d="M372,446.6c-0.2-1.1,0.4-1.8,1.3-2.3C373.4,445.4,372.6,445.9,372,446.6z"/>
	<path class="st4" d="M370.6,449.1c-0.2-1.2,0.4-1.9,1.4-2.4C371.9,447.7,371,448.2,370.6,449.1z"/>
	<path class="st10" d="M163.6,373.2c0,1-0.6,1.6-1.5,1.9C162.4,374.2,162.9,373.6,163.6,373.2z"/>
	<path class="st4" d="M365.7,456.7c0-0.8,0.1-1.5,0.9-1.8C366.9,455.7,366.5,456.3,365.7,456.7z"/>
	<path class="st4" d="M363.4,433.8c0,0.5,0.1,1.1-0.6,1.3C362.9,434.6,362.8,434,363.4,433.8z"/>
	<path class="st17" d="M180,558.9c-0.5,0-1,0.1-1.5,0.1c-0.4,0.2-0.7,0.5-0.9,0.9l0,0.1c-1.5,0.8-3.2,1.3-4.8,1.9
		c-3.1,1-6.1,2.1-9.2,3c-3.5,1-6.9,0.8-10.4,1c-0.9,0-1.7-0.2-2.5-0.6c-0.9-0.5-1.4-1.2-1.4-2.3c0-1.9,0-3.8,1.3-5.4
		c1.2-1.5,1.2-3.6,2.3-5.2c2.6-4,5.2-7.9,8.2-11.7c1.9-2.4,3.9-4.7,6.1-6.9c2.2-2.2,4.3-4.5,6.8-6.6c1.4-1.2,2.6-2.6,3.7-4
		c0.4-0.5,1-0.8,1.5-1.1c1.7-1.3,3.2-2.9,4.9-4c2.7-1.8,4.9-4.3,7.8-5.9c2.2-1.2,4-2.8,5.9-4.4c1.4-1.2,3.2-1.9,4.7-3.2
		c2.2-2,4.8-3.3,7.3-4.8c2.2-1.3,4.2-3,6.7-3.9c1.8-0.6,3.4-2.1,5.1-3c3.1-1.7,6.5-3.1,9.4-5.1c2.3-1.6,5-2.2,7.4-3.6
		c2.4-1.4,4.9-2.7,7.5-3.5c3-1,5.8-2.5,8.7-3.7c1.8-0.8,3.9-1.2,5.5-2.1c2.2-1.3,5.1-1.3,7-3.3c0.2-0.2,0.4-0.3,0.6-0.3
		c2.4,0.3,4.2-1.3,6.4-1.7c1.2-0.2,2.5-0.4,3.5-1.4c0.5-0.6,1.4-0.5,2.1-0.4c1.2,0.1,1.7,1.1,1,2c-2.7,3.6-5.1,7.4-8,10.8
		c-0.9,1-1.5,2.2-2.3,3.3c-0.6,0.9-1.1,2-2.2,2.4c-0.3,0.1-0.6,0.5-0.8,0.9c-1.3,3.4-4.6,5.4-6.2,8.6c-1.4,0.5-2.1,1.7-2.9,2.8
		c-2,2.8-4.7,4.9-6.9,7.5c-1.1,1.3-2.6,2.3-3.7,3.7c-2,2.4-4.6,4.4-6.7,6.8c-1.1,1.2-2.6,2.3-3.7,3.5c-2.4,2.5-5.7,3.9-7.7,6.9
		c-0.6,0.9-1.6,0.9-2.4,1.6c-3,2.6-6.1,5-9.2,7.5c-2.9,2.4-6.3,4.2-9.2,6.7c-1.5,1.2-3.4,2-5,3.1c-3,2.1-6,4-9.3,5.7
		c-1.7,0.9-3.5,1.5-5,2.5c-2,1.2-4.3,2-6.1,3.3C182.1,557.9,180.8,557.9,180,558.9z"/>
	<path class="st1" d="M181.3,560.9c1.3,0,1.6,0.2,1.6,1.7c0,0.8,0.1,1.7-1.1,1.6c-1.1,0-2.2-1.2-2.2-2.1
		C179.7,561.1,180.5,560.9,181.3,560.9z"/>
	<path class="st1" d="M172.8,561.8c1.4-1.2,3.1-1.5,4.8-1.9C176.3,561.3,174.7,562,172.8,561.8z"/>
	<path class="st1" d="M177.6,559.9c0-0.6,0.3-0.9,0.9-0.9C178.4,559.4,178.1,559.7,177.6,559.9z"/>
	<path class="st10" d="M162.2,380.6c0,0.3-0.2,0.6-0.6,0.6c-0.5,0-0.7-0.2-0.7-0.7c0-0.4,0.3-0.5,0.7-0.5
		C161.9,380,162.1,380.3,162.2,380.6z"/>
	<path class="st8" d="M416.4,373c-0.4,0-0.6-0.1-0.7-0.5c0-0.1,0-0.2,0-0.2c0-1.2,0.9-2.4,1.9-2.4c0.6,0,0.9,0.3,0.9,0.8
		C418.6,371.6,417.5,372.9,416.4,373z"/>
	<path class="st4" d="M366.7,439.1c0,1.4-0.8,2.1-1.7,2.6c-0.7,0.4-1.4,0.2-2-0.4c-0.5-0.5-0.8-1.1,0-1.6c0.8-0.5,1.3-1.1,1.4-2.1
		c0-0.4,0.3-0.8,0.7-0.9c0.6-0.1,0.9,0.3,1.1,0.7C366.5,438,366.8,438.6,366.7,439.1z"/>
	<path class="st4" d="M368.6,447.8c0,1.3-0.8,2.1-1.7,3c-0.3,0.3-0.8,0.2-1.1,0c-0.4-0.3-0.5-0.7-0.3-1.2c0.4-0.9,0.7-1.7,1.1-2.6
		c0.2-0.4,0.4-1,0.9-1c0.7,0,0.8,0.7,1,1.2C368.6,447.3,368.6,447.5,368.6,447.8z"/>
	<path class="st8" d="M386.9,397.2c0.8,0.2,1.4-0.4,2.1-0.7c0.1,0.9-0.5,1.2-0.9,1.6C386.9,399,386.9,398.1,386.9,397.2L386.9,397.2
		z"/>
	<path class="st8" d="M384.1,404.2c0.1,0.1,0.2,0.2,0.2,0.2c0,0.5-0.2,1-0.7,1.3c-0.1,0-0.3-0.1-0.3-0.2
		C383.3,404.8,383.4,404.3,384.1,404.2z"/>
	<path class="st6" d="M410.2,362.9c0.3,0.1,0.5,0.4,0.5,0.7c-0.1,0.4-0.3,0.7-0.8,0.7c-0.4,0-0.5-0.4-0.4-0.7
		C409.6,363.3,409.8,362.9,410.2,362.9z"/>
	<path class="st2" d="M196.6,345c-0.1,0.1-0.3,0.2-0.4,0.1c-0.1,0-0.1-0.2-0.2-0.4c0.1-0.1,0.3-0.2,0.4-0.1
		C196.5,344.7,196.6,344.9,196.6,345z"/>
	<path class="st5" d="M172.8,424.5c1.2,0,2.4,0.2,3.5-0.3c0.5-0.2,1-0.2,1.1,0.4c0.1,0.7-0.4,0.8-0.9,0.8c-0.2,0-0.4,0-0.5,0.1
		c-1.9,1.4-3.8,1.2-5.8,0.1C171.1,425.3,172.2,425.5,172.8,424.5L172.8,424.5z"/>
	<path class="st11" d="M408.3,466.2c-0.1,0.1-0.1,0.3-0.2,0.4c-0.1,0-0.3-0.1-0.4-0.2c0.1-0.1,0.1-0.3,0.2-0.4
		C408,466,408.2,466.1,408.3,466.2z"/>
	<path class="st6" d="M409,338.7c0.7,1,0.2,1.7-0.1,2.4c-0.2,0.4-0.5,0.9-1.1,0.7c-0.5-0.1-0.8-0.5-1-0.9c-0.3-0.6,0.1-0.9,0.5-1.2
		C407.8,339.4,408.4,339.1,409,338.7z"/>
</g>
</svg>
